<svg width="43" height="43" viewBox="0 0 43 43" fill="none" xmlns="http://www.w3.org/2000/svg">
<rect width="43" height="43" rx="21.5" fill="url(#paint0_linear_32_471)"/>
<path d="M23.8865 38.5643C29.4872 37.4427 36.7291 33.4132 36.7291 22.9947C36.7291 13.515 29.79 7.20114 24.8002 4.30043C23.6912 3.65543 22.3958 4.50289 22.3958 5.78393V9.0591C22.3958 11.6427 21.3101 16.3583 18.2929 18.3202C16.7521 19.3218 15.0858 17.8221 14.8995 15.9946L14.7454 14.4932C14.5662 12.7481 12.7889 11.6893 11.395 12.7535C8.88844 14.6616 6.27081 18.0121 6.27081 22.9929C6.27081 35.7334 15.7469 38.9208 20.4841 38.9208C20.7612 38.9208 21.0503 38.9118 21.3513 38.8939C19.0114 38.6951 15.2291 37.2438 15.2291 32.5496C15.2291 28.8767 17.9077 26.3953 19.943 25.1859C20.4913 24.8634 21.1309 25.2844 21.1309 25.9205V26.9776C21.1309 27.7838 21.4444 29.0469 22.188 29.9105C23.0301 30.8888 24.2645 29.8639 24.3631 28.5775C24.3953 28.1726 24.8038 27.9146 25.155 28.1188C26.3034 28.7907 27.7708 30.2241 27.7708 32.5496C27.7708 36.219 25.748 37.9067 23.8865 38.5643Z" fill="#333232"/>
<defs>
<linearGradient id="paint0_linear_32_471" x1="9.40809" y1="40.9355" x2="22.4438" y2="34.3292" gradientUnits="userSpaceOnUse">
<stop stop-color="#FDB022"/>
<stop offset="1" stop-color="#FFCD71"/>
</linearGradient>
</defs>
</svg>
