<svg width="60" height="60" viewBox="0 0 60 60" fill="none" xmlns="http://www.w3.org/2000/svg">
<rect x="1" y="1" width="58" height="58" rx="29" fill="#333232"/>
<rect x="1" y="1" width="58" height="58" rx="29" stroke="#FEF0C7" stroke-width="2"/>
<g clip-path="url(#clip0_4_229)">
<path d="M22.2896 14.5833H17.1667V11.5H24.377L27.4604 19.2083H43.375V22.2917H40.1097L38.8348 43.966C38.8116 44.3583 38.6394 44.727 38.3534 44.9967C38.0674 45.2663 37.6893 45.4166 37.2962 45.4167H21.7038C21.3107 45.4166 20.9326 45.2663 20.6466 44.9967C20.3606 44.727 20.1884 44.3583 20.1652 43.966L18.8902 22.2917H15.625V19.2083H24.1396L22.2896 14.5833ZM21.9782 22.2917L22.2526 26.9552C26.372 27.1248 28.3715 27.8879 30.055 28.5616C31.6753 29.2091 33.015 29.7734 36.5716 29.9491L37.0218 22.2917H21.9782Z" fill="#FEF0C7"/>
</g>
<defs>
<clipPath id="clip0_4_229">
<rect width="37" height="37" fill="white" transform="translate(11 11.5)"/>
</clipPath>
</defs>
</svg>
