<svg width="61" height="60" viewBox="0 0 61 60" fill="none" xmlns="http://www.w3.org/2000/svg">
<rect x="1.5" y="1" width="58" height="58" rx="29" fill="#333232"/>
<rect x="1.5" y="1" width="58" height="58" rx="29" stroke="#FEF0C7" stroke-width="2"/>
<path d="M39.75 36.9375H25.3229L22.36 39.4668L19.3971 36.9375H13.1562V38.6719C13.1562 40.8825 14.6832 42.6833 16.5715 42.7188C16.7471 43.8114 17.1721 44.7986 17.8116 45.5711C18.7576 46.7136 20.1328 47.3438 21.6836 47.3438H31.2227C32.7735 47.3438 34.1487 46.7136 35.0946 45.5696C35.7342 44.7971 36.1591 43.81 36.3347 42.7173C37.3378 42.6992 38.2389 42.1825 38.864 41.371C39.4478 40.593 39.7592 39.6445 39.75 38.6719V36.9375ZM19.5879 34.625L22.3578 36.6622L25.1523 34.625H39.75V34.0469C39.7492 33.3807 39.5187 32.7353 39.0975 32.2193C38.6763 31.7032 38.09 31.3482 37.4375 31.2141C37.3782 29.0685 36.498 27.2727 34.8713 26.0109C33.3668 24.8373 31.3563 24.2188 29.0547 24.2188H23.8516C18.9216 24.2188 15.5822 27.0205 15.4688 31.2141C14.8163 31.3482 14.23 31.7032 13.8088 32.2193C13.3875 32.7353 13.1571 33.3807 13.1562 34.0469V34.625H19.5879Z" fill="#FEF0C7"/>
<path d="M45.4648 18.4375H40.0745L40.7191 15.8605L43.9414 14.752L43.2188 12.6562L38.7383 14.1016L37.6912 18.4375H27.0312V20.75H28.3862L28.5206 21.9062H29.0547C31.873 21.9062 34.3778 22.6939 36.2899 24.1841C37.3535 25.0035 38.2156 26.0553 38.8105 27.259C39.1771 28.0057 39.4381 28.7998 39.586 29.6184C40.6628 30.2814 41.4613 31.3139 41.8323 32.5229C42.2032 33.7319 42.1211 35.0345 41.6014 36.1874C41.9059 36.9803 42.0622 37.8225 42.0625 38.6719C42.0625 40.2863 41.5133 41.8248 40.516 43.0042C39.8989 43.7394 39.1083 44.3094 38.2158 44.6627C37.9116 45.5295 37.4585 46.3365 36.8767 47.0475C36.7914 47.1501 36.704 47.2505 36.6144 47.3474H42.0625C43.2188 47.3474 43.7246 46.7692 43.8691 45.6853L46.4996 20.7536H47.8438V18.4375H45.4648Z" fill="#FEF0C7"/>
</svg>
