<svg width="25" height="26" viewBox="0 0 25 26" fill="none" xmlns="http://www.w3.org/2000/svg">
<g clip-path="url(#clip0_184_719)">
<path d="M25 13C25 6.09648 19.4035 0.5 12.5 0.5C5.59648 0.5 0 6.09648 0 13C0 19.2391 4.57109 24.4104 10.5469 25.3481V16.6133H7.37305V13H10.5469V10.2461C10.5469 7.11328 12.4131 5.38281 15.2684 5.38281C16.6359 5.38281 18.0664 5.62695 18.0664 5.62695V8.70312H16.4902C14.9374 8.70312 14.4531 9.6667 14.4531 10.6553V13H17.9199L17.3657 16.6133H14.4531V25.3481C20.4289 24.4104 25 19.2392 25 13Z" fill="#1877F2"/>
<path d="M17.3657 16.6133L17.9199 13H14.4531V10.6553C14.4531 9.6666 14.9374 8.70312 16.4902 8.70312H18.0664V5.62695C18.0664 5.62695 16.6359 5.38281 15.2683 5.38281C12.4131 5.38281 10.5469 7.11328 10.5469 10.2461V13H7.37305V16.6133H10.5469V25.3481C11.193 25.4494 11.846 25.5002 12.5 25.5C13.154 25.5002 13.807 25.4494 14.4531 25.3481V16.6133H17.3657Z" fill="white"/>
</g>
<defs>
<clipPath id="clip0_184_719">
<rect width="25" height="25" fill="white" transform="translate(0 0.5)"/>
</clipPath>
</defs>
</svg>
