<svg width="18" height="26" viewBox="0 0 18 26" fill="none" xmlns="http://www.w3.org/2000/svg">
<g clip-path="url(#clip0_184_699)">
<path d="M4.96289 19.0194C5.70915 19.9409 6.38839 20.9115 6.9957 21.9242C7.51418 22.8766 7.73032 23.5225 8.10923 24.6701C8.34162 25.3042 8.55164 25.4934 9.00319 25.4934C9.49523 25.4934 9.71848 25.1715 9.89095 24.6736C10.2491 23.5898 10.5302 22.7627 10.9736 21.9811C11.8436 20.4723 12.9247 19.1315 13.987 17.8429C14.2746 17.4781 16.1339 15.3534 16.971 13.6769C16.971 13.6769 17.9998 11.8353 17.9998 9.2633C17.9998 6.85744 16.9852 5.18884 16.9852 5.18884L14.0641 5.94674L12.2901 10.4734L11.8512 11.0976L11.7634 11.2106L11.6467 11.3522L11.4418 11.5783L11.1491 11.8619L9.56934 13.1087L5.61989 15.318L4.96289 19.0194Z" fill="#34A853"/>
<path d="M0.886719 13.3673C1.85063 15.5003 3.70941 17.3754 4.96702 19.0209L11.6468 11.3551C11.6468 11.3551 10.7057 12.5475 8.99867 12.5475C7.09721 12.5475 5.56109 11.0764 5.56109 9.22153C5.56109 7.94953 6.35098 7.07568 6.35098 7.07568L1.8166 8.2528L0.886719 13.3673Z" fill="#FBBC04"/>
<path d="M11.7214 0.894226C13.9399 1.58721 15.8387 3.04205 16.9873 5.18735L11.6488 11.3507C11.6488 11.3507 12.4387 10.4611 12.4387 9.19695C12.4387 7.29886 10.789 5.88087 9.00676 5.88087C7.32144 5.88087 6.35352 7.07127 6.35352 7.07127V3.18844L11.7214 0.894226Z" fill="#4285F4"/>
<path d="M2.11035 3.61751C3.43539 2.08161 5.76695 0.5 8.98136 0.5C10.5409 0.5 11.7158 0.896662 11.7158 0.896662L6.34844 7.07466H2.54559L2.11035 3.61751Z" fill="#1A73E8"/>
<path d="M0.886781 13.3673C0.886781 13.3673 0 11.6849 0 9.24753C0 6.94392 0.924328 4.9303 2.11043 3.61749L6.35154 7.07519L0.886781 13.3673Z" fill="#EA4335"/>
</g>
<defs>
<clipPath id="clip0_184_699">
<rect width="18" height="25" fill="white" transform="translate(0 0.5)"/>
</clipPath>
</defs>
</svg>
