<svg width="60" height="60" viewBox="0 0 60 60" fill="none" xmlns="http://www.w3.org/2000/svg">
<rect x="1" y="1" width="58" height="58" rx="29" fill="#333232"/>
<rect x="1" y="1" width="58" height="58" rx="29" stroke="url(#paint0_linear_184_815)" stroke-width="2"/>
<path d="M29.5 15.2C27.5374 15.2 25.6552 15.9797 24.2675 17.3674C22.8797 18.7552 22.1 20.6374 22.1 22.6C22.1 24.5626 22.8797 26.4448 24.2675 27.8326C25.6552 29.2204 27.5374 30 29.5 30C31.4627 30 33.3449 29.2204 34.7326 27.8326C36.1204 26.4448 36.9 24.5626 36.9 22.6C36.9 20.6374 36.1204 18.7552 34.7326 17.3674C33.3449 15.9797 31.4627 15.2 29.5 15.2ZM20.2667 31.85C19.7794 31.8478 19.2965 31.9419 18.8457 32.1269C18.3948 32.3118 17.985 32.584 17.6396 32.9278C17.2943 33.2716 17.0203 33.6802 16.8333 34.1302C16.6463 34.5802 16.55 35.0627 16.55 35.55C16.55 38.6784 18.0911 41.0371 20.4998 42.5745C22.4941 43.8454 25.073 44.554 27.8813 44.7464L28.5565 42.5301C27.9582 41.209 27.6491 39.7753 27.65 38.325C27.65 35.8645 28.5232 33.6075 29.9755 31.85H20.2667ZM46.15 38.325C46.1503 39.7741 45.7724 41.1981 45.0536 42.4563C44.3348 43.7145 43.3 44.7632 42.0516 45.4989C40.8032 46.2346 39.3844 46.6316 37.9354 46.6509C36.4865 46.6701 35.0577 46.3108 33.7902 45.6085L30.4787 46.6149C30.3477 46.6539 30.2085 46.6568 30.076 46.6232C29.9435 46.5897 29.8225 46.521 29.7258 46.4243C29.6291 46.3276 29.5604 46.2066 29.5268 46.0741C29.4933 45.9415 29.4962 45.8024 29.5352 45.6714L30.5416 42.3617C29.9263 41.2502 29.5735 40.0127 29.5104 38.7438C29.4472 37.475 29.6752 36.2085 30.177 35.0414C30.6788 33.8743 31.4411 32.8375 32.4055 32.0104C33.3698 31.1834 34.5106 30.588 35.7406 30.2699C36.9706 29.9518 38.257 29.9194 39.5014 30.1752C40.7458 30.4311 41.9151 30.9683 42.9199 31.7458C43.9246 32.5233 44.7381 33.5204 45.298 34.6608C45.8579 35.8012 46.1493 37.0546 46.15 38.325ZM34.125 35.55C33.8797 35.55 33.6444 35.6475 33.471 35.8209C33.2975 35.9944 33.2 36.2297 33.2 36.475C33.2 36.7203 33.2975 36.9556 33.471 37.1291C33.6444 37.3026 33.8797 37.4 34.125 37.4H41.525C41.7704 37.4 42.0057 37.3026 42.1791 37.1291C42.3526 36.9556 42.45 36.7203 42.45 36.475C42.45 36.2297 42.3526 35.9944 42.1791 35.8209C42.0057 35.6475 41.7704 35.55 41.525 35.55H34.125ZM33.2 40.175C33.2 40.4203 33.2975 40.6556 33.471 40.8291C33.6444 41.0026 33.8797 41.1 34.125 41.1H37.825C38.0704 41.1 38.3057 41.0026 38.4791 40.8291C38.6526 40.6556 38.75 40.4203 38.75 40.175C38.75 39.9297 38.6526 39.6944 38.4791 39.5209C38.3057 39.3475 38.0704 39.25 37.825 39.25H34.125C33.8797 39.25 33.6444 39.3475 33.471 39.5209C33.2975 39.6944 33.2 39.9297 33.2 40.175Z" fill="url(#paint1_linear_184_815)"/>
<defs>
<linearGradient id="paint0_linear_184_815" x1="13.1276" y1="57.1193" x2="31.3169" y2="47.9012" gradientUnits="userSpaceOnUse">
<stop stop-color="#FDB022"/>
<stop offset="1" stop-color="#FFCD71"/>
</linearGradient>
<linearGradient id="paint1_linear_184_815" x1="23.0263" y1="45.1416" x2="32.2143" y2="40.7594" gradientUnits="userSpaceOnUse">
<stop stop-color="#FDB022"/>
<stop offset="1" stop-color="#FFCD71"/>
</linearGradient>
</defs>
</svg>
