<svg width="43" height="43" viewBox="0 0 43 43" fill="none" xmlns="http://www.w3.org/2000/svg">
<g clip-path="url(#clip0_32_464)">
<rect width="43" height="43" rx="21.5" fill="url(#paint0_linear_32_464)"/>
<path d="M14.5136 20.9625C16.3668 20.9625 18.1441 20.2264 19.4545 18.916C20.7649 17.6055 21.5011 15.8282 21.5011 13.975C21.5011 12.1218 20.7649 10.3446 19.4545 9.03414C18.1441 7.72373 16.3668 6.98755 14.5136 6.98755C12.6604 6.98755 10.8831 7.72373 9.57267 9.03414C8.26226 10.3446 7.52607 12.1218 7.52607 13.975C7.52607 15.8282 8.26226 17.6055 9.57267 18.916C10.8831 20.2264 12.6604 20.9625 14.5136 20.9625ZM26.7406 32.0243C27.8801 32.4909 29.3292 32.7875 31.1739 32.7875C39.7739 32.7875 39.7739 26.3375 39.7739 26.3375C39.7739 25.4826 39.4344 24.6626 38.8301 24.0579C38.2258 23.4531 37.406 23.1131 36.5511 23.1125H26.6009C27.4458 24.136 27.9532 25.4453 27.9532 26.875V27.6404C27.9487 27.8215 27.9365 28.0022 27.9167 28.1822C27.7703 29.5253 27.3699 30.8288 26.7406 32.0243ZM36.5511 15.5875C36.5511 17.0131 35.9848 18.3802 34.9768 19.3882C33.9688 20.3963 32.6016 20.9625 31.1761 20.9625C29.7505 20.9625 28.3834 20.3963 27.3754 19.3882C26.3674 18.3802 25.8011 17.0131 25.8011 15.5875C25.8011 14.162 26.3674 12.7949 27.3754 11.7868C28.3834 10.7788 29.7505 10.2125 31.1761 10.2125C32.6016 10.2125 33.9688 10.7788 34.9768 11.7868C35.9848 12.7949 36.5511 14.162 36.5511 15.5875ZM3.22607 27.4125C3.22607 26.2721 3.67911 25.1784 4.48551 24.372C5.29192 23.5656 6.38564 23.1125 7.52607 23.1125H21.5011C22.6415 23.1125 23.7352 23.5656 24.5416 24.372C25.348 25.1784 25.8011 26.2721 25.8011 27.4125C25.8011 27.4125 25.8011 36.0126 14.5136 36.0126C3.22607 36.0126 3.22607 27.4125 3.22607 27.4125Z" fill="#333232"/>
</g>
<defs>
<linearGradient id="paint0_linear_32_464" x1="9.40809" y1="40.9355" x2="22.4438" y2="34.3292" gradientUnits="userSpaceOnUse">
<stop stop-color="#FDB022"/>
<stop offset="1" stop-color="#FFCD71"/>
</linearGradient>
<clipPath id="clip0_32_464">
<rect width="43" height="43" rx="21.5" fill="white"/>
</clipPath>
</defs>
</svg>
