<svg width="36" height="36" viewBox="0 0 36 36" fill="none" xmlns="http://www.w3.org/2000/svg">
<path d="M12.75 21C13.2473 21 13.7242 20.8025 14.0758 20.4508C14.4275 20.0992 14.625 19.6223 14.625 19.125C14.625 18.6277 14.4275 18.1508 14.0758 17.7992C13.7242 17.4475 13.2473 17.25 12.75 17.25C12.2527 17.25 11.7758 17.4475 11.4242 17.7992C11.0725 18.1508 10.875 18.6277 10.875 19.125C10.875 19.6223 11.0725 20.0992 11.4242 20.4508C11.7758 20.8025 12.2527 21 12.75 21ZM12.75 26.25C13.2473 26.25 13.7242 26.0525 14.0758 25.7008C14.4275 25.3492 14.625 24.8723 14.625 24.375C14.625 23.8777 14.4275 23.4008 14.0758 23.0492C13.7242 22.6975 13.2473 22.5 12.75 22.5C12.2527 22.5 11.7758 22.6975 11.4242 23.0492C11.0725 23.4008 10.875 23.8777 10.875 24.375C10.875 24.8723 11.0725 25.3492 11.4242 25.7008C11.7758 26.0525 12.2527 26.25 12.75 26.25ZM19.875 19.125C19.875 19.6223 19.6775 20.0992 19.3258 20.4508C18.9742 20.8025 18.4973 21 18 21C17.5027 21 17.0258 20.8025 16.6742 20.4508C16.3225 20.0992 16.125 19.6223 16.125 19.125C16.125 18.6277 16.3225 18.1508 16.6742 17.7992C17.0258 17.4475 17.5027 17.25 18 17.25C18.4973 17.25 18.9742 17.4475 19.3258 17.7992C19.6775 18.1508 19.875 18.6277 19.875 19.125ZM18 26.25C18.4973 26.25 18.9742 26.0525 19.3258 25.7008C19.6775 25.3492 19.875 24.8723 19.875 24.375C19.875 23.8777 19.6775 23.4008 19.3258 23.0492C18.9742 22.6975 18.4973 22.5 18 22.5C17.5027 22.5 17.0258 22.6975 16.6742 23.0492C16.3225 23.4008 16.125 23.8777 16.125 24.375C16.125 24.8723 16.3225 25.3492 16.6742 25.7008C17.0258 26.0525 17.5027 26.25 18 26.25ZM25.125 19.125C25.125 19.6223 24.9275 20.0992 24.5758 20.4508C24.2242 20.8025 23.7473 21 23.25 21C22.7527 21 22.2758 20.8025 21.9242 20.4508C21.5725 20.0992 21.375 19.6223 21.375 19.125C21.375 18.6277 21.5725 18.1508 21.9242 17.7992C22.2758 17.4475 22.7527 17.25 23.25 17.25C23.7473 17.25 24.2242 17.4475 24.5758 17.7992C24.9275 18.1508 25.125 18.6277 25.125 19.125Z" fill="#A4A7AE"/>
<path fill-rule="evenodd" clip-rule="evenodd" d="M12 4.875C12.2984 4.875 12.5845 4.99353 12.7955 5.2045C13.0065 5.41548 13.125 5.70163 13.125 6V7.125H22.875V6C22.875 5.70163 22.9935 5.41548 23.2045 5.2045C23.4155 4.99353 23.7016 4.875 24 4.875C24.2984 4.875 24.5845 4.99353 24.7955 5.2045C25.0065 5.41548 25.125 5.70163 25.125 6V7.137C25.353 7.143 25.5655 7.154 25.7625 7.17C26.3325 7.215 26.8665 7.317 27.372 7.575C28.1483 7.97051 28.7795 8.60167 29.175 9.378C29.433 9.8835 29.535 10.4175 29.58 10.9875C29.625 11.535 29.625 12.2025 29.625 13.005V24.495C29.625 25.2975 29.625 25.965 29.58 26.5125C29.535 27.0825 29.433 27.6165 29.175 28.122C28.7799 28.8981 28.1493 29.5292 27.3735 29.925C26.8665 30.183 26.3325 30.285 25.7625 30.33C25.215 30.375 24.5475 30.375 23.7465 30.375H12.255C11.4525 30.375 10.785 30.375 10.2375 30.33C9.6675 30.285 9.1335 30.183 8.628 29.925C7.85213 29.5303 7.22102 28.9002 6.825 28.125C6.567 27.618 6.465 27.084 6.42 26.514C6.375 25.9665 6.375 25.299 6.375 24.498V13.005C6.375 12.2025 6.375 11.535 6.42 10.9875C6.465 10.4175 6.567 9.8835 6.825 9.378C7.22051 8.60167 7.85167 7.97051 8.628 7.575C9.1335 7.317 9.6675 7.215 10.2375 7.17C10.4345 7.154 10.647 7.143 10.875 7.137V6C10.875 5.85226 10.9041 5.70597 10.9606 5.56948C11.0172 5.43299 11.1 5.30897 11.2045 5.2045C11.309 5.10004 11.433 5.01717 11.5695 4.96064C11.706 4.9041 11.8523 4.875 12 4.875ZM27.375 15.375H8.625V24.45C8.625 25.308 8.625 25.8855 8.6625 26.328C8.697 26.76 8.76 26.9655 8.829 27.1005C9.009 27.4545 9.2955 27.741 9.6495 27.921C9.7845 27.99 9.99 28.053 10.4205 28.0875C10.8645 28.1235 11.4405 28.125 12.3 28.125H23.7C24.558 28.125 25.1355 28.125 25.578 28.0875C26.01 28.053 26.2155 27.99 26.3505 27.921C26.7039 27.7411 26.9911 27.4539 27.171 27.1005C27.24 26.9655 27.303 26.76 27.3375 26.328C27.3735 25.8855 27.375 25.308 27.375 24.45V15.375ZM15.75 10.5C15.4516 10.5 15.1655 10.6185 14.9545 10.8295C14.7435 11.0405 14.625 11.3266 14.625 11.625C14.625 11.9234 14.7435 12.2095 14.9545 12.4205C15.1655 12.6315 15.4516 12.75 15.75 12.75H20.25C20.5484 12.75 20.8345 12.6315 21.0455 12.4205C21.2565 12.2095 21.375 11.9234 21.375 11.625C21.375 11.3266 21.2565 11.0405 21.0455 10.8295C20.8345 10.6185 20.5484 10.5 20.25 10.5H15.75Z" fill="#A4A7AE"/>
</svg>
