<svg width="43" height="43" viewBox="0 0 43 43" fill="none" xmlns="http://www.w3.org/2000/svg">
<path d="M30.4578 5.98538C33.1599 7.54551 35.4077 9.7843 36.9786 12.4801C38.5496 15.1759 39.3892 18.2352 39.4144 21.3553C39.4396 24.4753 38.6495 27.5478 37.1223 30.2686C35.5951 32.9894 33.3838 35.2642 30.7073 36.8678C28.0307 38.4714 24.9818 39.3482 21.8623 39.4113C18.7428 39.4744 15.6608 38.7218 12.9216 37.2278C10.1824 35.7338 7.88083 33.5503 6.2448 30.8935C4.60878 28.2367 3.69501 25.1987 3.59395 22.0802L3.58499 21.4998L3.59395 20.9193C3.69428 17.8254 4.5946 14.8102 6.20713 12.1678C7.81967 9.52542 10.0894 7.34594 12.795 5.84185C15.5006 4.33776 18.5498 3.5604 21.6453 3.58555C24.7408 3.61071 27.777 4.43752 30.4578 5.98538ZM21.5002 10.7508C21.0614 10.7508 20.6379 10.9119 20.31 11.2035C19.9821 11.4951 19.7726 11.8969 19.7212 12.3327L19.7087 12.5423V21.4998L19.7248 21.7344C19.7657 22.0453 19.8874 22.3399 20.0777 22.589L20.2336 22.7681L25.6082 28.1426L25.7766 28.2895C26.0908 28.5333 26.4771 28.6656 26.8748 28.6656C27.2724 28.6656 27.6588 28.5333 27.973 28.2895L28.1414 28.1409L28.2901 27.9725C28.5338 27.6583 28.6662 27.2719 28.6662 26.8743C28.6662 26.4766 28.5338 26.0903 28.2901 25.7761L28.1414 25.6077L23.2917 20.7563V12.5423L23.2792 12.3327C23.2279 11.8969 23.0184 11.4951 22.6905 11.2035C22.3625 10.9119 21.939 10.7508 21.5002 10.7508Z" fill="#333232"/>
</svg>
