<svg width="67" height="24" viewBox="0 0 67 24" fill="none" xmlns="http://www.w3.org/2000/svg">
<rect x="0.5" y="0.5" width="66" height="23" rx="11.5" fill="url(#paint0_linear_201_498)"/>
<rect x="0.5" y="0.5" width="66" height="23" rx="11.5" stroke="#535862"/>
<path d="M12.5732 15.5L9.9707 8.34668H11.333L12.8467 12.7656C12.9053 12.9186 13.0404 13.3662 13.252 14.1084C13.265 14.0563 13.3252 13.8431 13.4326 13.4688C13.54 13.0911 13.61 12.86 13.6426 12.7754C13.6816 12.6647 13.929 11.9307 14.3848 10.5732C14.8405 9.21257 15.0895 8.47038 15.1318 8.34668H16.4795L13.9111 15.5H12.5732ZM17.2607 15.5V8.34668H18.584V15.5H17.2607ZM20.166 15.5V8.34668H24.502L24.4482 9.39648H21.4893V11.2422H24.3018V12.292H21.4893V14.4453H24.5557L24.5117 15.5H20.166ZM27.0117 15.5L25.0684 8.34668H26.3867L27.7734 13.9131L29.4043 8.38086H30.6689L32.2168 13.9326L33.6328 8.34668H34.9512L32.9492 15.5H31.5771L30.0488 10.2607L28.374 15.5H27.0117Z" fill="#333232"/>
<path d="M42.9999 12C42.9999 12.2652 43.1053 12.5196 43.2928 12.7071C43.4804 12.8946 43.7347 13 43.9999 13L51.9199 13L49.2933 15.6267C49.1166 15.8162 49.0205 16.067 49.025 16.326C49.0296 16.5851 49.1346 16.8323 49.3178 17.0155C49.501 17.1987 49.7482 17.3037 50.0072 17.3082C50.2663 17.3128 50.517 17.2166 50.7066 17.04L55.0399 12.7067C55.2272 12.5192 55.3324 12.265 55.3324 12C55.3324 11.735 55.2272 11.4808 55.0399 11.2933L50.7066 6.96C50.6151 6.86175 50.5047 6.78295 50.382 6.72829C50.2593 6.67364 50.1269 6.64425 49.9926 6.64188C49.8584 6.63951 49.725 6.66421 49.6005 6.7145C49.476 6.7648 49.3629 6.83966 49.2679 6.93462C49.1729 7.02957 49.0981 7.14269 49.0478 7.2672C48.9975 7.39172 48.9728 7.52509 48.9752 7.65936C48.9775 7.79363 49.0069 7.92605 49.0616 8.04872C49.1162 8.17138 49.195 8.28178 49.2933 8.37333L51.9199 11L43.9999 11C43.4479 11 42.9999 11.448 42.9999 12Z" fill="#535862"/>
<defs>
<linearGradient id="paint0_linear_201_498" x1="14.6591" y1="22.8477" x2="23.1639" y2="10.8153" gradientUnits="userSpaceOnUse">
<stop stop-color="#FDB022"/>
<stop offset="1" stop-color="#FFCD71"/>
</linearGradient>
</defs>
</svg>
